<?xml version="1.0" standalone="no"?>
<!DOCTYPE svg PUBLIC "-//W3C//DTD SVG 20010904//EN"
 "http://www.w3.org/TR/2001/REC-SVG-20010904/DTD/svg10.dtd">
<svg version="1.0" xmlns="http://www.w3.org/2000/svg"
 width="360.000000pt" height="360.000000pt" viewBox="0 0 360.000000 360.000000"
 preserveAspectRatio="xMidYMid meet">
<metadata>
Created by potrace 1.16, written by Peter Selinger 2001-2019
</metadata>
<g transform="translate(0.000000,360.000000) scale(0.100000,-0.100000)"
fill="#000000" stroke="none">
<path d="M730 3298 c-24 -112 -40 -269 -40 -403 0 -231 35 -403 125 -607 59
-134 62 -139 77 -114 6 11 28 38 49 61 36 39 37 41 22 69 -9 16 -33 79 -55
140 -22 61 -51 131 -65 155 l-25 44 43 -24 c24 -13 72 -53 108 -88 l64 -64 -6
62 c-7 69 -39 150 -68 177 -10 9 -19 21 -19 26 0 13 81 -40 129 -86 l43 -41
-6 63 c-14 127 -64 251 -162 397 -29 44 -61 91 -70 105 -9 14 9 -2 40 -35 123
-132 236 -326 270 -466 20 -82 20 -141 0 -209 -16 -55 -33 -74 -215 -245 -36
-34 -79 -88 -99 -123 -147 -264 -295 -420 -454 -478 l-61 -22 30 -13 c17 -8
70 -13 125 -14 87 0 101 3 163 32 l68 32 -22 -30 c-49 -69 -185 -149 -291
-171 -32 -7 -58 -15 -58 -19 0 -22 119 -34 340 -34 259 -2 298 -8 435 -77 189
-96 271 -186 421 -465 52 -98 100 -182 105 -187 15 -17 10 -24 -21 -31 -17 -4
-46 -21 -65 -40 -45 -42 -47 -89 -6 -160 54 -94 150 -165 223 -165 98 1 227
125 243 235 8 54 -21 100 -80 126 l-44 19 48 83 c27 45 75 131 107 190 78 143
142 226 223 291 89 72 178 119 286 152 86 26 99 27 285 25 150 -1 213 3 273
15 42 9 77 20 77 23 0 4 -26 12 -57 19 -96 20 -174 64 -255 142 -68 67 -70 70
-33 52 68 -33 175 -62 229 -62 54 0 126 16 125 28 0 4 -40 26 -89 50 -153 73
-269 199 -401 436 -35 63 -67 100 -161 188 -128 119 -153 158 -171 261 -25
146 70 361 263 596 65 79 99 106 43 34 -123 -157 -222 -384 -223 -511 l0 -34
27 33 c27 32 108 89 127 89 5 0 2 -8 -7 -18 -33 -36 -68 -130 -73 -199 l-6
-68 28 35 c61 75 104 116 145 139 l43 24 -22 -34 c-11 -19 -40 -91 -62 -159
-23 -69 -49 -137 -58 -152 -15 -26 -15 -27 41 -82 31 -31 59 -52 61 -47 3 5
22 46 42 92 98 226 134 396 134 622 0 182 -35 447 -61 462 -5 3 -54 -17 -110
-46 -312 -160 -570 -394 -731 -663 -27 -43 -48 -76 -48 -72 0 4 20 47 45 96
l44 89 -38 11 c-68 18 -209 28 -288 20 -86 -9 -175 -29 -171 -39 2 -3 22 -43
46 -88 52 -102 54 -117 4 -34 -134 222 -336 425 -582 583 -96 62 -252 148
-268 148 -6 0 -15 -24 -22 -52z m690 -1238 c137 -135 220 -333 220 -530 0 -47
-5 -92 -10 -100 -7 -11 -10 -12 -10 -2 0 7 -14 47 -31 88 -78 188 -251 285
-454 255 -41 -6 -98 -20 -126 -31 -29 -11 -54 -18 -56 -16 -7 7 122 69 171 82
173 46 357 -25 458 -176 16 -25 16 -24 7 20 -35 165 -130 341 -247 456 -48 49
-52 54 -23 38 19 -10 64 -48 101 -84z m808 11 c-110 -119 -164 -218 -206 -381
-20 -76 -20 -101 1 -65 27 50 114 127 176 158 60 29 74 32 161 32 79 0 107 -5
170 -28 41 -15 86 -36 100 -47 22 -18 18 -17 -41 4 -148 55 -255 55 -368 0
-99 -49 -196 -171 -232 -293 -12 -41 -14 -43 -20 -20 -12 44 -9 176 6 256 29
153 136 327 254 414 37 27 68 49 69 49 2 0 -29 -36 -70 -79z"/>
<path d="M700 1290 c-25 -5 -81 -21 -125 -38 l-80 -29 75 -38 c242 -121 423
-257 744 -562 138 -132 211 -191 222 -180 3 3 -13 29 -36 58 -62 79 -87 136
-105 240 -9 52 -26 114 -37 139 -50 105 -209 211 -368 246 -143 31 -142 30
-47 38 48 4 116 5 150 1 l62 -6 -25 22 c-40 35 -160 88 -235 104 -76 16 -125
17 -195 5z"/>
<path d="M2733 1290 c-72 -10 -162 -44 -232 -90 -28 -18 -51 -33 -51 -34 0 0
57 -2 128 -2 70 -1 141 -6 157 -12 29 -10 29 -10 -15 -11 -135 -3 -311 -74
-400 -161 -61 -59 -95 -130 -110 -225 -18 -117 -43 -172 -126 -273 -15 -18
-24 -35 -21 -39 11 -10 107 69 267 222 283 270 454 399 668 503 l113 56 -58
18 c-155 49 -228 60 -320 48z"/>
</g>
</svg>
